<mxfile host="app.diagrams.net" modified="2022-06-08T21:43:29.927Z" agent="5.0 (Windows NT 10.0; Win64; x64) AppleWebKit/537.36 (KHTML, like Gecko) Chrome/102.0.5005.63 Safari/537.36" etag="lyovsGejLYzEd4bTj7cL" version="19.0.2" type="github">
  <diagram id="IhzEzsToBiXMktf6I1g5" name="Page-1">
    <mxGraphModel dx="1240" dy="643" grid="0" gridSize="10" guides="1" tooltips="1" connect="1" arrows="1" fold="1" page="1" pageScale="1" pageWidth="827" pageHeight="1169" math="0" shadow="0">
      <root>
        <mxCell id="0" />
        <mxCell id="1" parent="0" />
        <mxCell id="C1wmLBce0w5cXy57Bqss-13" value="" style="endArrow=none;html=1;rounded=0;fontSize=12;dashed=1;strokeWidth=4;shadow=0;" edge="1" parent="1">
          <mxGeometry width="50" height="50" relative="1" as="geometry">
            <mxPoint x="405" y="172.0000000000001" as="sourcePoint" />
            <mxPoint x="405" y="962.9999999999998" as="targetPoint" />
          </mxGeometry>
        </mxCell>
        <mxCell id="C1wmLBce0w5cXy57Bqss-14" value="0.0&lt;br&gt;Часть для функциональной диагностики" style="ellipse;shape=doubleEllipse;whiteSpace=wrap;html=1;aspect=fixed;fontStyle=1;fontSize=14;" vertex="1" parent="1">
          <mxGeometry x="665" y="485" width="140" height="140" as="geometry" />
        </mxCell>
        <mxCell id="C1wmLBce0w5cXy57Bqss-15" value="&lt;div style=&quot;line-height: 0.9;&quot;&gt;&lt;br&gt;&lt;/div&gt;&lt;div style=&quot;display:none&quot; id=&quot;SDCloudData&quot;&gt;&lt;/div&gt;" style="text;whiteSpace=wrap;html=1;" vertex="1" parent="1">
          <mxGeometry x="392" y="165" width="3" height="15" as="geometry" />
        </mxCell>
        <mxCell id="C1wmLBce0w5cXy57Bqss-16" value="1.0&lt;br style=&quot;font-size: 14px;&quot;&gt;Пользователь&lt;div style=&quot;display: none; font-size: 14px;&quot; id=&quot;SDCloudData&quot;&gt;&lt;/div&gt;" style="html=1;dashed=0;whitespace=wrap;fontStyle=1;fontSize=14;" vertex="1" parent="1">
          <mxGeometry x="149" y="220" width="130" height="50" as="geometry" />
        </mxCell>
        <mxCell id="C1wmLBce0w5cXy57Bqss-17" value="ИНТРАСЕТЬ&amp;nbsp; &amp;nbsp; &amp;nbsp; &amp;nbsp; &amp;nbsp; &amp;nbsp; &amp;nbsp; &amp;nbsp; &amp;nbsp; &amp;nbsp; &amp;nbsp; &amp;nbsp; &amp;nbsp; &amp;nbsp; &amp;nbsp; &amp;nbsp; &amp;nbsp; &amp;nbsp; ЦЕНТР ДАННЫХ&lt;div style=&quot;display: none; font-size: 14px;&quot; id=&quot;SDCloudData&quot;&gt;&lt;/div&gt;" style="text;whiteSpace=wrap;html=1;strokeWidth=2;fontStyle=1;fontSize=14;" vertex="1" parent="1">
          <mxGeometry x="250" y="150" width="381" height="30" as="geometry" />
        </mxCell>
        <mxCell id="C1wmLBce0w5cXy57Bqss-18" value="Мобильное приложение для функциональной диагностики" style="text;whiteSpace=wrap;html=1;fontSize=19;fontStyle=1" vertex="1" parent="1">
          <mxGeometry x="153" y="91" width="600" height="30" as="geometry" />
        </mxCell>
        <mxCell id="C1wmLBce0w5cXy57Bqss-19" value="2.0&lt;br style=&quot;font-size: 14px;&quot;&gt;Мобильный&lt;br&gt;&amp;nbsp;разработчик&lt;div style=&quot;display: none; font-size: 14px;&quot; id=&quot;SDCloudData&quot;&gt;&lt;/div&gt;" style="html=1;dashed=0;whitespace=wrap;fontStyle=1;fontSize=14;" vertex="1" parent="1">
          <mxGeometry x="149" y="395" width="130" height="50" as="geometry" />
        </mxCell>
        <mxCell id="C1wmLBce0w5cXy57Bqss-20" value="3.0&lt;br style=&quot;font-size: 14px;&quot;&gt;Администратор&lt;br&gt;&lt;div style=&quot;display: none; font-size: 14px;&quot; id=&quot;SDCloudData&quot;&gt;&lt;/div&gt;" style="html=1;dashed=0;whitespace=wrap;fontStyle=1;fontSize=14;" vertex="1" parent="1">
          <mxGeometry x="153" y="592" width="130" height="50" as="geometry" />
        </mxCell>
        <mxCell id="C1wmLBce0w5cXy57Bqss-21" value="" style="curved=1;endArrow=classic;html=1;rounded=0;fontSize=19;entryX=0.332;entryY=0.032;entryDx=0;entryDy=0;entryPerimeter=0;exitX=1;exitY=0.5;exitDx=0;exitDy=0;" edge="1" parent="1" source="C1wmLBce0w5cXy57Bqss-16" target="C1wmLBce0w5cXy57Bqss-14">
          <mxGeometry width="50" height="50" relative="1" as="geometry">
            <mxPoint x="240" y="260" as="sourcePoint" />
            <mxPoint x="290" y="210" as="targetPoint" />
            <Array as="points">
              <mxPoint x="340" y="250" />
              <mxPoint x="520" y="250" />
              <mxPoint x="740" y="340" />
            </Array>
          </mxGeometry>
        </mxCell>
        <mxCell id="C1wmLBce0w5cXy57Bqss-22" value="&lt;font style=&quot;font-size: 14px;&quot;&gt;Запрос определения диагноза&lt;/font&gt;" style="edgeLabel;html=1;align=center;verticalAlign=middle;resizable=0;points=[];fontSize=19;fontStyle=1" vertex="1" connectable="0" parent="C1wmLBce0w5cXy57Bqss-21">
          <mxGeometry x="0.2408" y="-22" relative="1" as="geometry">
            <mxPoint x="-19" y="-27" as="offset" />
          </mxGeometry>
        </mxCell>
        <mxCell id="C1wmLBce0w5cXy57Bqss-23" value="" style="curved=1;endArrow=classic;html=1;rounded=0;fontSize=19;exitX=0;exitY=0;exitDx=0;exitDy=0;entryX=0.5;entryY=1;entryDx=0;entryDy=0;" edge="1" parent="1" source="C1wmLBce0w5cXy57Bqss-14" target="C1wmLBce0w5cXy57Bqss-16">
          <mxGeometry width="50" height="50" relative="1" as="geometry">
            <mxPoint x="240" y="260" as="sourcePoint" />
            <mxPoint x="290" y="210" as="targetPoint" />
            <Array as="points">
              <mxPoint x="630" y="360" />
              <mxPoint x="370" y="370" />
            </Array>
          </mxGeometry>
        </mxCell>
        <mxCell id="C1wmLBce0w5cXy57Bqss-24" value="Результат определяемого диагноза" style="edgeLabel;html=1;align=center;verticalAlign=middle;resizable=0;points=[];fontSize=14;fontStyle=1" vertex="1" connectable="0" parent="C1wmLBce0w5cXy57Bqss-23">
          <mxGeometry x="0.4035" y="-17" relative="1" as="geometry">
            <mxPoint x="-15" y="-36" as="offset" />
          </mxGeometry>
        </mxCell>
        <mxCell id="C1wmLBce0w5cXy57Bqss-25" value="" style="curved=1;endArrow=classic;html=1;rounded=0;fontSize=14;exitX=1;exitY=0.25;exitDx=0;exitDy=0;entryX=0.025;entryY=0.233;entryDx=0;entryDy=0;entryPerimeter=0;" edge="1" parent="1" source="C1wmLBce0w5cXy57Bqss-19" target="C1wmLBce0w5cXy57Bqss-14">
          <mxGeometry width="50" height="50" relative="1" as="geometry">
            <mxPoint x="400" y="290" as="sourcePoint" />
            <mxPoint x="450" y="240" as="targetPoint" />
            <Array as="points">
              <mxPoint x="522" y="441" />
            </Array>
          </mxGeometry>
        </mxCell>
        <mxCell id="C1wmLBce0w5cXy57Bqss-26" value="Обновленые файле" style="edgeLabel;html=1;align=center;verticalAlign=middle;resizable=0;points=[];fontSize=14;fontStyle=1" vertex="1" connectable="0" parent="C1wmLBce0w5cXy57Bqss-25">
          <mxGeometry x="0.3003" y="-18" relative="1" as="geometry">
            <mxPoint x="-131" y="-35" as="offset" />
          </mxGeometry>
        </mxCell>
        <mxCell id="C1wmLBce0w5cXy57Bqss-27" value="" style="curved=1;endArrow=classic;html=1;rounded=0;fontSize=14;exitX=0.414;exitY=0.037;exitDx=0;exitDy=0;entryX=0.014;entryY=0.656;entryDx=0;entryDy=0;entryPerimeter=0;exitPerimeter=0;" edge="1" parent="1" source="C1wmLBce0w5cXy57Bqss-20">
          <mxGeometry width="50" height="50" relative="1" as="geometry">
            <mxPoint x="213" y="519" as="sourcePoint" />
            <mxPoint x="647.4599999999998" y="578.8399999999999" as="targetPoint" />
            <Array as="points">
              <mxPoint x="406" y="457" />
            </Array>
          </mxGeometry>
        </mxCell>
        <mxCell id="C1wmLBce0w5cXy57Bqss-28" value="Запрос на административное&lt;br&gt;&amp;nbsp;воздействие" style="edgeLabel;html=1;align=center;verticalAlign=middle;resizable=0;points=[];fontSize=14;fontStyle=1" vertex="1" connectable="0" parent="C1wmLBce0w5cXy57Bqss-27">
          <mxGeometry x="-0.3113" y="-5" relative="1" as="geometry">
            <mxPoint x="43" y="36" as="offset" />
          </mxGeometry>
        </mxCell>
        <mxCell id="C1wmLBce0w5cXy57Bqss-29" value="" style="curved=1;endArrow=classic;html=1;rounded=0;fontSize=14;exitX=0;exitY=1;exitDx=0;exitDy=0;entryX=0.438;entryY=1.068;entryDx=0;entryDy=0;entryPerimeter=0;" edge="1" parent="1" target="C1wmLBce0w5cXy57Bqss-20">
          <mxGeometry width="50" height="50" relative="1" as="geometry">
            <mxPoint x="660.5025253169417" y="609.497474683058" as="sourcePoint" />
            <mxPoint x="175" y="572" as="targetPoint" />
            <Array as="points">
              <mxPoint x="494" y="658" />
              <mxPoint x="481" y="744" />
            </Array>
          </mxGeometry>
        </mxCell>
        <mxCell id="C1wmLBce0w5cXy57Bqss-30" value="Отклик на административное&lt;br&gt;&amp;nbsp;воздействие" style="edgeLabel;html=1;align=center;verticalAlign=middle;resizable=0;points=[];fontSize=14;fontStyle=1" vertex="1" connectable="0" parent="C1wmLBce0w5cXy57Bqss-29">
          <mxGeometry x="0.2723" y="-8" relative="1" as="geometry">
            <mxPoint x="148" y="-24" as="offset" />
          </mxGeometry>
        </mxCell>
      </root>
    </mxGraphModel>
  </diagram>
</mxfile>
